<mxfile host="app.diagrams.net" agent="Mozilla/5.0 (Windows NT 10.0; Win64; x64) AppleWebKit/537.36 (KHTML, like Gecko) Chrome/133.0.0.0 Safari/537.36" version="26.1.0">
  <diagram name="Page-1" id="cADDCv98jLjz5h6yTYDD">
    <mxGraphModel dx="2109" dy="655" grid="1" gridSize="10" guides="1" tooltips="1" connect="1" arrows="1" fold="1" page="1" pageScale="1" pageWidth="850" pageHeight="1100" math="0" shadow="0">
      <root>
        <mxCell id="0" />
        <mxCell id="1" parent="0" />
        <mxCell id="25jbwgpmmalpk9oRE4Ha-3" style="edgeStyle=orthogonalEdgeStyle;rounded=0;orthogonalLoop=1;jettySize=auto;html=1;" parent="1" source="25jbwgpmmalpk9oRE4Ha-1" target="25jbwgpmmalpk9oRE4Ha-2" edge="1">
          <mxGeometry relative="1" as="geometry" />
        </mxCell>
        <mxCell id="25jbwgpmmalpk9oRE4Ha-5" style="edgeStyle=orthogonalEdgeStyle;rounded=0;orthogonalLoop=1;jettySize=auto;html=1;" parent="1" source="25jbwgpmmalpk9oRE4Ha-1" target="25jbwgpmmalpk9oRE4Ha-4" edge="1">
          <mxGeometry relative="1" as="geometry">
            <Array as="points">
              <mxPoint x="330" y="100" />
              <mxPoint x="330" y="209" />
            </Array>
          </mxGeometry>
        </mxCell>
        <mxCell id="25jbwgpmmalpk9oRE4Ha-1" value="" style="sketch=0;aspect=fixed;pointerEvents=1;shadow=0;dashed=0;html=1;strokeColor=none;labelPosition=center;verticalLabelPosition=bottom;verticalAlign=top;align=center;fillColor=#00188D;shape=mxgraph.azure.laptop" parent="1" vertex="1">
          <mxGeometry x="80" y="40" width="200" height="120" as="geometry" />
        </mxCell>
        <mxCell id="25jbwgpmmalpk9oRE4Ha-2" value="" style="shape=image;html=1;verticalAlign=top;verticalLabelPosition=bottom;labelBackgroundColor=#ffffff;imageAspect=0;aspect=fixed;image=https://cdn4.iconfinder.com/data/icons/PixeloPhilia_2/PNG/hdd.png" parent="1" vertex="1">
          <mxGeometry x="380" y="65" width="70" height="70" as="geometry" />
        </mxCell>
        <mxCell id="25jbwgpmmalpk9oRE4Ha-4" value="" style="dashed=0;outlineConnect=0;html=1;align=center;labelPosition=center;verticalLabelPosition=bottom;verticalAlign=top;shape=mxgraph.weblogos.google_drive" parent="1" vertex="1">
          <mxGeometry x="381.8" y="180" width="66.4" height="58" as="geometry" />
        </mxCell>
        <mxCell id="25jbwgpmmalpk9oRE4Ha-6" value="&lt;b&gt;Should be &lt;br&gt;besdie the server&lt;/b&gt;" style="text;html=1;align=center;verticalAlign=middle;resizable=0;points=[];autosize=1;strokeColor=none;fillColor=none;" parent="1" vertex="1">
          <mxGeometry x="450" y="73" width="120" height="40" as="geometry" />
        </mxCell>
        <mxCell id="25jbwgpmmalpk9oRE4Ha-7" value="&lt;b&gt;anywhere in internet&lt;/b&gt;" style="text;html=1;align=center;verticalAlign=middle;resizable=0;points=[];autosize=1;strokeColor=none;fillColor=none;" parent="1" vertex="1">
          <mxGeometry x="450" y="198" width="140" height="30" as="geometry" />
        </mxCell>
        <mxCell id="25jbwgpmmalpk9oRE4Ha-8" value="" style="rounded=0;whiteSpace=wrap;html=1;" parent="1" vertex="1">
          <mxGeometry x="80" y="300" width="510" height="310" as="geometry" />
        </mxCell>
        <mxCell id="25jbwgpmmalpk9oRE4Ha-14" style="edgeStyle=orthogonalEdgeStyle;rounded=0;orthogonalLoop=1;jettySize=auto;html=1;" parent="1" source="25jbwgpmmalpk9oRE4Ha-9" target="25jbwgpmmalpk9oRE4Ha-11" edge="1">
          <mxGeometry relative="1" as="geometry" />
        </mxCell>
        <mxCell id="25jbwgpmmalpk9oRE4Ha-15" style="edgeStyle=orthogonalEdgeStyle;rounded=0;orthogonalLoop=1;jettySize=auto;html=1;" parent="1" source="25jbwgpmmalpk9oRE4Ha-9" target="25jbwgpmmalpk9oRE4Ha-12" edge="1">
          <mxGeometry relative="1" as="geometry" />
        </mxCell>
        <mxCell id="25jbwgpmmalpk9oRE4Ha-9" value="Amazon EKS" style="sketch=0;outlineConnect=0;fontColor=#232F3E;gradientColor=none;strokeColor=#ffffff;fillColor=#232F3E;dashed=0;verticalLabelPosition=middle;verticalAlign=bottom;align=center;html=1;whiteSpace=wrap;fontSize=10;fontStyle=1;spacing=3;shape=mxgraph.aws4.productIcon;prIcon=mxgraph.aws4.eks;" parent="1" vertex="1">
          <mxGeometry x="160" y="350" width="80" height="100" as="geometry" />
        </mxCell>
        <mxCell id="25jbwgpmmalpk9oRE4Ha-10" value="" style="sketch=0;points=[[0,0,0],[0.25,0,0],[0.5,0,0],[0.75,0,0],[1,0,0],[0,1,0],[0.25,1,0],[0.5,1,0],[0.75,1,0],[1,1,0],[0,0.25,0],[0,0.5,0],[0,0.75,0],[1,0.25,0],[1,0.5,0],[1,0.75,0]];outlineConnect=0;fontColor=#232F3E;fillColor=#ED7100;strokeColor=#ffffff;dashed=0;verticalLabelPosition=bottom;verticalAlign=top;align=center;html=1;fontSize=12;fontStyle=0;aspect=fixed;shape=mxgraph.aws4.resourceIcon;resIcon=mxgraph.aws4.ec2;" parent="1" vertex="1">
          <mxGeometry x="385" y="330" width="40" height="40" as="geometry" />
        </mxCell>
        <mxCell id="25jbwgpmmalpk9oRE4Ha-11" value="" style="sketch=0;points=[[0,0,0],[0.25,0,0],[0.5,0,0],[0.75,0,0],[1,0,0],[0,1,0],[0.25,1,0],[0.5,1,0],[0.75,1,0],[1,1,0],[0,0.25,0],[0,0.5,0],[0,0.75,0],[1,0.25,0],[1,0.5,0],[1,0.75,0]];outlineConnect=0;fontColor=#232F3E;fillColor=#ED7100;strokeColor=#ffffff;dashed=0;verticalLabelPosition=bottom;verticalAlign=top;align=center;html=1;fontSize=12;fontStyle=0;aspect=fixed;shape=mxgraph.aws4.resourceIcon;resIcon=mxgraph.aws4.ec2;" parent="1" vertex="1">
          <mxGeometry x="385" y="380" width="40" height="40" as="geometry" />
        </mxCell>
        <mxCell id="25jbwgpmmalpk9oRE4Ha-12" value="" style="sketch=0;points=[[0,0,0],[0.25,0,0],[0.5,0,0],[0.75,0,0],[1,0,0],[0,1,0],[0.25,1,0],[0.5,1,0],[0.75,1,0],[1,1,0],[0,0.25,0],[0,0.5,0],[0,0.75,0],[1,0.25,0],[1,0.5,0],[1,0.75,0]];outlineConnect=0;fontColor=#232F3E;fillColor=#ED7100;strokeColor=#ffffff;dashed=0;verticalLabelPosition=bottom;verticalAlign=top;align=center;html=1;fontSize=12;fontStyle=0;aspect=fixed;shape=mxgraph.aws4.resourceIcon;resIcon=mxgraph.aws4.ec2;" parent="1" vertex="1">
          <mxGeometry x="385" y="435" width="40" height="40" as="geometry" />
        </mxCell>
        <mxCell id="25jbwgpmmalpk9oRE4Ha-13" style="edgeStyle=orthogonalEdgeStyle;rounded=0;orthogonalLoop=1;jettySize=auto;html=1;entryX=0;entryY=0.5;entryDx=0;entryDy=0;entryPerimeter=0;" parent="1" source="25jbwgpmmalpk9oRE4Ha-9" target="25jbwgpmmalpk9oRE4Ha-10" edge="1">
          <mxGeometry relative="1" as="geometry" />
        </mxCell>
        <mxCell id="25jbwgpmmalpk9oRE4Ha-18" style="edgeStyle=orthogonalEdgeStyle;rounded=0;orthogonalLoop=1;jettySize=auto;html=1;" parent="1" source="25jbwgpmmalpk9oRE4Ha-16" target="25jbwgpmmalpk9oRE4Ha-17" edge="1">
          <mxGeometry relative="1" as="geometry" />
        </mxCell>
        <mxCell id="25jbwgpmmalpk9oRE4Ha-16" value="&lt;b&gt;EBS&lt;/b&gt;" style="shape=cylinder3;whiteSpace=wrap;html=1;boundedLbl=1;backgroundOutline=1;size=15;fillColor=#d5e8d4;strokeColor=#82b366;" parent="1" vertex="1">
          <mxGeometry x="425" y="690" width="125" height="90" as="geometry" />
        </mxCell>
        <mxCell id="25jbwgpmmalpk9oRE4Ha-17" value="" style="aspect=fixed;sketch=0;html=1;dashed=0;whitespace=wrap;verticalLabelPosition=bottom;verticalAlign=top;fillColor=#2875E2;strokeColor=#ffffff;points=[[0.005,0.63,0],[0.1,0.2,0],[0.9,0.2,0],[0.5,0,0],[0.995,0.63,0],[0.72,0.99,0],[0.5,1,0],[0.28,0.99,0]];shape=mxgraph.kubernetes.icon2;kubernetesLabel=1;prIcon=pv" parent="1" vertex="1">
          <mxGeometry x="451.03999999999996" y="510" width="72.92" height="70" as="geometry" />
        </mxCell>
        <mxCell id="25jbwgpmmalpk9oRE4Ha-20" style="edgeStyle=orthogonalEdgeStyle;rounded=0;orthogonalLoop=1;jettySize=auto;html=1;" parent="1" source="25jbwgpmmalpk9oRE4Ha-19" target="25jbwgpmmalpk9oRE4Ha-17" edge="1">
          <mxGeometry relative="1" as="geometry" />
        </mxCell>
        <mxCell id="25jbwgpmmalpk9oRE4Ha-19" value="" style="aspect=fixed;sketch=0;html=1;dashed=0;whitespace=wrap;verticalLabelPosition=bottom;verticalAlign=top;fillColor=#2875E2;strokeColor=#ffffff;points=[[0.005,0.63,0],[0.1,0.2,0],[0.9,0.2,0],[0.5,0,0],[0.995,0.63,0],[0.72,0.99,0],[0.5,1,0],[0.28,0.99,0]];shape=mxgraph.kubernetes.icon2;kubernetesLabel=1;prIcon=pvc" parent="1" vertex="1">
          <mxGeometry x="309.92" y="510" width="71.88" height="69" as="geometry" />
        </mxCell>
        <mxCell id="25jbwgpmmalpk9oRE4Ha-22" style="edgeStyle=orthogonalEdgeStyle;rounded=0;orthogonalLoop=1;jettySize=auto;html=1;" parent="1" source="25jbwgpmmalpk9oRE4Ha-21" target="25jbwgpmmalpk9oRE4Ha-19" edge="1">
          <mxGeometry relative="1" as="geometry" />
        </mxCell>
        <mxCell id="25jbwgpmmalpk9oRE4Ha-21" value="" style="aspect=fixed;sketch=0;html=1;dashed=0;whitespace=wrap;verticalLabelPosition=bottom;verticalAlign=top;fillColor=#2875E2;strokeColor=#ffffff;points=[[0.005,0.63,0],[0.1,0.2,0],[0.9,0.2,0],[0.5,0,0],[0.995,0.63,0],[0.72,0.99,0],[0.5,1,0],[0.28,0.99,0]];shape=mxgraph.kubernetes.icon2;kubernetesLabel=1;prIcon=pod" parent="1" vertex="1">
          <mxGeometry x="168.23000000000002" y="514.5" width="63.54" height="61" as="geometry" />
        </mxCell>
        <mxCell id="TtkW3sJaIQGOb1gbdWpf-1" value="" style="rounded=0;whiteSpace=wrap;html=1;" parent="1" vertex="1">
          <mxGeometry x="110" y="910" width="510" height="310" as="geometry" />
        </mxCell>
        <mxCell id="TtkW3sJaIQGOb1gbdWpf-2" value="" style="outlineConnect=0;dashed=0;verticalLabelPosition=bottom;verticalAlign=top;align=center;html=1;shape=mxgraph.aws3.efs;fillColor=#E05243;gradientColor=none;" parent="1" vertex="1">
          <mxGeometry x="500" y="1018.5" width="76.5" height="93" as="geometry" />
        </mxCell>
        <mxCell id="TtkW3sJaIQGOb1gbdWpf-3" value="" style="rounded=0;whiteSpace=wrap;html=1;fillColor=#dae8fc;strokeColor=#6c8ebf;" parent="1" vertex="1">
          <mxGeometry x="160" y="1015" width="160" height="100" as="geometry" />
        </mxCell>
        <mxCell id="TtkW3sJaIQGOb1gbdWpf-4" value="&lt;b&gt;Pod&lt;/b&gt;" style="ellipse;whiteSpace=wrap;html=1;fillColor=#d5e8d4;strokeColor=#82b366;" parent="1" vertex="1">
          <mxGeometry x="200" y="1040" width="90" height="60" as="geometry" />
        </mxCell>
        <mxCell id="TtkW3sJaIQGOb1gbdWpf-5" value="&lt;b&gt;Worker node&lt;/b&gt;" style="text;html=1;align=center;verticalAlign=middle;resizable=0;points=[];autosize=1;strokeColor=none;fillColor=none;" parent="1" vertex="1">
          <mxGeometry x="190" y="1010" width="100" height="30" as="geometry" />
        </mxCell>
        <mxCell id="TtkW3sJaIQGOb1gbdWpf-6" value="" style="endArrow=classic;html=1;rounded=0;exitX=1;exitY=0.5;exitDx=0;exitDy=0;" parent="1" source="TtkW3sJaIQGOb1gbdWpf-4" target="TtkW3sJaIQGOb1gbdWpf-2" edge="1">
          <mxGeometry width="50" height="50" relative="1" as="geometry">
            <mxPoint x="400" y="910" as="sourcePoint" />
            <mxPoint x="450" y="860" as="targetPoint" />
          </mxGeometry>
        </mxCell>
        <mxCell id="TtkW3sJaIQGOb1gbdWpf-7" value="" style="sketch=0;html=1;aspect=fixed;strokeColor=none;shadow=0;fillColor=#3B8DF1;verticalAlign=top;labelPosition=center;verticalLabelPosition=bottom;shape=mxgraph.gcp2.lock" parent="1" vertex="1">
          <mxGeometry x="309.92" y="995" width="46.8" height="60" as="geometry" />
        </mxCell>
        <mxCell id="TtkW3sJaIQGOb1gbdWpf-8" value="" style="sketch=0;html=1;aspect=fixed;strokeColor=none;shadow=0;fillColor=#3B8DF1;verticalAlign=top;labelPosition=center;verticalLabelPosition=bottom;shape=mxgraph.gcp2.lock" parent="1" vertex="1">
          <mxGeometry x="477.16" y="990" width="46.8" height="60" as="geometry" />
        </mxCell>
        <mxCell id="TtkW3sJaIQGOb1gbdWpf-9" value="&lt;b&gt;2049&lt;/b&gt;" style="text;html=1;align=center;verticalAlign=middle;resizable=0;points=[];autosize=1;strokeColor=none;fillColor=none;" parent="1" vertex="1">
          <mxGeometry x="460" y="1081.5" width="50" height="30" as="geometry" />
        </mxCell>
        <mxCell id="TtkW3sJaIQGOb1gbdWpf-16" style="edgeStyle=orthogonalEdgeStyle;rounded=0;orthogonalLoop=1;jettySize=auto;html=1;" parent="1" source="TtkW3sJaIQGOb1gbdWpf-10" target="TtkW3sJaIQGOb1gbdWpf-12" edge="1">
          <mxGeometry relative="1" as="geometry">
            <Array as="points">
              <mxPoint x="340" y="1529" />
              <mxPoint x="340" y="1379" />
            </Array>
          </mxGeometry>
        </mxCell>
        <mxCell id="TtkW3sJaIQGOb1gbdWpf-17" style="edgeStyle=orthogonalEdgeStyle;rounded=0;orthogonalLoop=1;jettySize=auto;html=1;" parent="1" source="TtkW3sJaIQGOb1gbdWpf-10" target="TtkW3sJaIQGOb1gbdWpf-14" edge="1">
          <mxGeometry relative="1" as="geometry" />
        </mxCell>
        <mxCell id="TtkW3sJaIQGOb1gbdWpf-18" style="edgeStyle=orthogonalEdgeStyle;rounded=0;orthogonalLoop=1;jettySize=auto;html=1;" parent="1" source="TtkW3sJaIQGOb1gbdWpf-10" target="TtkW3sJaIQGOb1gbdWpf-13" edge="1">
          <mxGeometry relative="1" as="geometry">
            <Array as="points">
              <mxPoint x="340" y="1529" />
              <mxPoint x="340" y="1679" />
            </Array>
          </mxGeometry>
        </mxCell>
        <mxCell id="TtkW3sJaIQGOb1gbdWpf-10" value="" style="sketch=0;outlineConnect=0;fontColor=#232F3E;gradientColor=none;fillColor=#C925D1;strokeColor=none;dashed=0;verticalLabelPosition=bottom;verticalAlign=top;align=center;html=1;fontSize=12;fontStyle=0;aspect=fixed;pointerEvents=1;shape=mxgraph.aws4.rds_mysql_instance;" parent="1" vertex="1">
          <mxGeometry x="200" y="1490" width="78" height="78" as="geometry" />
        </mxCell>
        <mxCell id="TtkW3sJaIQGOb1gbdWpf-11" value="&lt;b&gt;Master&lt;/b&gt;" style="text;html=1;align=center;verticalAlign=middle;resizable=0;points=[];autosize=1;strokeColor=none;fillColor=none;" parent="1" vertex="1">
          <mxGeometry x="210" y="1568" width="60" height="30" as="geometry" />
        </mxCell>
        <mxCell id="TtkW3sJaIQGOb1gbdWpf-12" value="" style="sketch=0;outlineConnect=0;fontColor=#232F3E;gradientColor=none;fillColor=#C925D1;strokeColor=none;dashed=0;verticalLabelPosition=bottom;verticalAlign=top;align=center;html=1;fontSize=12;fontStyle=0;aspect=fixed;pointerEvents=1;shape=mxgraph.aws4.rds_mysql_instance_alt;" parent="1" vertex="1">
          <mxGeometry x="390" y="1340" width="78" height="78" as="geometry" />
        </mxCell>
        <mxCell id="TtkW3sJaIQGOb1gbdWpf-13" value="" style="sketch=0;outlineConnect=0;fontColor=#232F3E;gradientColor=none;fillColor=#C925D1;strokeColor=none;dashed=0;verticalLabelPosition=bottom;verticalAlign=top;align=center;html=1;fontSize=12;fontStyle=0;aspect=fixed;pointerEvents=1;shape=mxgraph.aws4.rds_mysql_instance_alt;" parent="1" vertex="1">
          <mxGeometry x="390" y="1640" width="78" height="78" as="geometry" />
        </mxCell>
        <mxCell id="TtkW3sJaIQGOb1gbdWpf-23" style="edgeStyle=orthogonalEdgeStyle;rounded=0;orthogonalLoop=1;jettySize=auto;html=1;flowAnimation=1;" parent="1" source="TtkW3sJaIQGOb1gbdWpf-14" target="TtkW3sJaIQGOb1gbdWpf-20" edge="1">
          <mxGeometry relative="1" as="geometry" />
        </mxCell>
        <mxCell id="TtkW3sJaIQGOb1gbdWpf-14" value="" style="sketch=0;outlineConnect=0;fontColor=#232F3E;gradientColor=none;fillColor=#C925D1;strokeColor=none;dashed=0;verticalLabelPosition=bottom;verticalAlign=top;align=center;html=1;fontSize=12;fontStyle=0;aspect=fixed;pointerEvents=1;shape=mxgraph.aws4.rds_mysql_instance_alt;" parent="1" vertex="1">
          <mxGeometry x="390" y="1490" width="78" height="78" as="geometry" />
        </mxCell>
        <mxCell id="TtkW3sJaIQGOb1gbdWpf-15" value="" style="endArrow=classic;html=1;rounded=0;flowAnimation=1;" parent="1" target="TtkW3sJaIQGOb1gbdWpf-10" edge="1">
          <mxGeometry width="50" height="50" relative="1" as="geometry">
            <mxPoint x="90" y="1529" as="sourcePoint" />
            <mxPoint x="450" y="1500" as="targetPoint" />
          </mxGeometry>
        </mxCell>
        <mxCell id="TtkW3sJaIQGOb1gbdWpf-19" value="" style="shape=cylinder3;whiteSpace=wrap;html=1;boundedLbl=1;backgroundOutline=1;size=15;" parent="1" vertex="1">
          <mxGeometry x="540" y="1338" width="60" height="80" as="geometry" />
        </mxCell>
        <mxCell id="TtkW3sJaIQGOb1gbdWpf-20" value="" style="shape=cylinder3;whiteSpace=wrap;html=1;boundedLbl=1;backgroundOutline=1;size=15;" parent="1" vertex="1">
          <mxGeometry x="540" y="1488" width="60" height="80" as="geometry" />
        </mxCell>
        <mxCell id="TtkW3sJaIQGOb1gbdWpf-21" value="" style="shape=cylinder3;whiteSpace=wrap;html=1;boundedLbl=1;backgroundOutline=1;size=15;" parent="1" vertex="1">
          <mxGeometry x="540" y="1638" width="60" height="80" as="geometry" />
        </mxCell>
        <mxCell id="TtkW3sJaIQGOb1gbdWpf-22" style="edgeStyle=orthogonalEdgeStyle;rounded=0;orthogonalLoop=1;jettySize=auto;html=1;entryX=0;entryY=0.5;entryDx=0;entryDy=0;entryPerimeter=0;flowAnimation=1;" parent="1" source="TtkW3sJaIQGOb1gbdWpf-12" target="TtkW3sJaIQGOb1gbdWpf-19" edge="1">
          <mxGeometry relative="1" as="geometry" />
        </mxCell>
        <mxCell id="TtkW3sJaIQGOb1gbdWpf-24" style="edgeStyle=orthogonalEdgeStyle;rounded=0;orthogonalLoop=1;jettySize=auto;html=1;entryX=0;entryY=0.5;entryDx=0;entryDy=0;entryPerimeter=0;flowAnimation=1;" parent="1" source="TtkW3sJaIQGOb1gbdWpf-13" target="TtkW3sJaIQGOb1gbdWpf-21" edge="1">
          <mxGeometry relative="1" as="geometry" />
        </mxCell>
        <mxCell id="TtkW3sJaIQGOb1gbdWpf-28" style="edgeStyle=orthogonalEdgeStyle;rounded=0;orthogonalLoop=1;jettySize=auto;html=1;" parent="1" source="TtkW3sJaIQGOb1gbdWpf-25" target="TtkW3sJaIQGOb1gbdWpf-27" edge="1">
          <mxGeometry relative="1" as="geometry">
            <Array as="points">
              <mxPoint x="140" y="1530" />
              <mxPoint x="140" y="1399" />
            </Array>
          </mxGeometry>
        </mxCell>
        <mxCell id="TtkW3sJaIQGOb1gbdWpf-29" style="edgeStyle=orthogonalEdgeStyle;rounded=0;orthogonalLoop=1;jettySize=auto;html=1;" parent="1" source="TtkW3sJaIQGOb1gbdWpf-25" target="TtkW3sJaIQGOb1gbdWpf-26" edge="1">
          <mxGeometry relative="1" as="geometry">
            <Array as="points">
              <mxPoint x="140" y="1530" />
              <mxPoint x="140" y="1669" />
            </Array>
          </mxGeometry>
        </mxCell>
        <mxCell id="TtkW3sJaIQGOb1gbdWpf-25" value="&lt;b&gt;Connection&lt;br&gt;Pool&lt;/b&gt;" style="ellipse;whiteSpace=wrap;html=1;aspect=fixed;fillColor=#f8cecc;strokeColor=#b85450;" parent="1" vertex="1">
          <mxGeometry x="10" y="1490.1" width="80" height="80" as="geometry" />
        </mxCell>
        <mxCell id="TtkW3sJaIQGOb1gbdWpf-26" value="" style="sketch=0;outlineConnect=0;fontColor=#232F3E;gradientColor=none;fillColor=#C925D1;strokeColor=none;dashed=0;verticalLabelPosition=bottom;verticalAlign=top;align=center;html=1;fontSize=12;fontStyle=0;aspect=fixed;pointerEvents=1;shape=mxgraph.aws4.rds_mysql_instance;" parent="1" vertex="1">
          <mxGeometry x="206" y="1630" width="78" height="78" as="geometry" />
        </mxCell>
        <mxCell id="TtkW3sJaIQGOb1gbdWpf-27" value="" style="sketch=0;outlineConnect=0;fontColor=#232F3E;gradientColor=none;fillColor=#C925D1;strokeColor=none;dashed=0;verticalLabelPosition=bottom;verticalAlign=top;align=center;html=1;fontSize=12;fontStyle=0;aspect=fixed;pointerEvents=1;shape=mxgraph.aws4.rds_mysql_instance;" parent="1" vertex="1">
          <mxGeometry x="200" y="1360" width="78" height="78" as="geometry" />
        </mxCell>
        <mxCell id="TtkW3sJaIQGOb1gbdWpf-30" value="&lt;b&gt;Stand By&lt;/b&gt;" style="text;html=1;align=center;verticalAlign=middle;resizable=0;points=[];autosize=1;strokeColor=none;fillColor=none;" parent="1" vertex="1">
          <mxGeometry x="198" y="1438" width="80" height="30" as="geometry" />
        </mxCell>
        <mxCell id="TtkW3sJaIQGOb1gbdWpf-31" value="&lt;b&gt;Stand By&lt;/b&gt;" style="text;html=1;align=center;verticalAlign=middle;resizable=0;points=[];autosize=1;strokeColor=none;fillColor=none;" parent="1" vertex="1">
          <mxGeometry x="205" y="1708" width="80" height="30" as="geometry" />
        </mxCell>
        <mxCell id="TtkW3sJaIQGOb1gbdWpf-33" style="edgeStyle=orthogonalEdgeStyle;rounded=0;orthogonalLoop=1;jettySize=auto;html=1;" parent="1" source="TtkW3sJaIQGOb1gbdWpf-32" target="TtkW3sJaIQGOb1gbdWpf-25" edge="1">
          <mxGeometry relative="1" as="geometry" />
        </mxCell>
        <mxCell id="TtkW3sJaIQGOb1gbdWpf-32" value="" style="points=[];aspect=fixed;html=1;align=center;shadow=0;dashed=0;fillColor=#FF6A00;strokeColor=none;shape=mxgraph.alibaba_cloud.webplus_web_app_service;" parent="1" vertex="1">
          <mxGeometry x="-170" y="1502.6499999999999" width="54.900000000000006" height="54.900000000000006" as="geometry" />
        </mxCell>
        <mxCell id="TtkW3sJaIQGOb1gbdWpf-34" value="&lt;b&gt;CRUD&lt;/b&gt;" style="text;html=1;align=center;verticalAlign=middle;resizable=0;points=[];autosize=1;strokeColor=none;fillColor=none;" parent="1" vertex="1">
          <mxGeometry x="460" y="1308" width="60" height="30" as="geometry" />
        </mxCell>
        <mxCell id="TtkW3sJaIQGOb1gbdWpf-35" value="" style="endArrow=classic;html=1;rounded=0;flowAnimation=1;" parent="1" edge="1">
          <mxGeometry width="50" height="50" relative="1" as="geometry">
            <mxPoint x="500" y="1380" as="sourcePoint" />
            <mxPoint x="500" y="1680" as="targetPoint" />
          </mxGeometry>
        </mxCell>
        <mxCell id="TtkW3sJaIQGOb1gbdWpf-36" value="&lt;b&gt;ReadOnly&lt;/b&gt;" style="text;html=1;align=center;verticalAlign=middle;resizable=0;points=[];autosize=1;strokeColor=none;fillColor=none;" parent="1" vertex="1">
          <mxGeometry x="600" y="1358" width="80" height="30" as="geometry" />
        </mxCell>
        <mxCell id="TtkW3sJaIQGOb1gbdWpf-37" value="&lt;b&gt;ReadOnly&lt;/b&gt;" style="text;html=1;align=center;verticalAlign=middle;resizable=0;points=[];autosize=1;strokeColor=none;fillColor=none;" parent="1" vertex="1">
          <mxGeometry x="600" y="1513" width="80" height="30" as="geometry" />
        </mxCell>
        <mxCell id="TtkW3sJaIQGOb1gbdWpf-38" value="&lt;b&gt;ReadWrite&lt;/b&gt;" style="text;html=1;align=center;verticalAlign=middle;resizable=0;points=[];autosize=1;strokeColor=none;fillColor=none;" parent="1" vertex="1">
          <mxGeometry x="600" y="1663" width="80" height="30" as="geometry" />
        </mxCell>
        <mxCell id="bX-L15AQA-pMD32BoVYn-1" value="" style="rounded=1;whiteSpace=wrap;html=1;" vertex="1" parent="1">
          <mxGeometry x="-310" y="700" width="200" height="120" as="geometry" />
        </mxCell>
        <mxCell id="bX-L15AQA-pMD32BoVYn-2" value="" style="ellipse;whiteSpace=wrap;html=1;" vertex="1" parent="1">
          <mxGeometry x="-260" y="720" width="120" height="80" as="geometry" />
        </mxCell>
        <mxCell id="bX-L15AQA-pMD32BoVYn-3" value="" style="shape=cylinder3;whiteSpace=wrap;html=1;boundedLbl=1;backgroundOutline=1;size=15;" vertex="1" parent="1">
          <mxGeometry x="90" y="710" width="70" height="90" as="geometry" />
        </mxCell>
        <mxCell id="bX-L15AQA-pMD32BoVYn-4" value="" style="endArrow=classic;html=1;rounded=0;exitX=1;exitY=0.5;exitDx=0;exitDy=0;entryX=-0.001;entryY=0.588;entryDx=0;entryDy=0;entryPerimeter=0;" edge="1" parent="1" source="bX-L15AQA-pMD32BoVYn-2" target="bX-L15AQA-pMD32BoVYn-3">
          <mxGeometry width="50" height="50" relative="1" as="geometry">
            <mxPoint x="290" y="960" as="sourcePoint" />
            <mxPoint x="340" y="910" as="targetPoint" />
          </mxGeometry>
        </mxCell>
      </root>
    </mxGraphModel>
  </diagram>
</mxfile>
